<svg id="Layer_1" data-name="Layer 1" xmlns="http://www.w3.org/2000/svg" viewBox="0 0 100 100"><defs><style>.cls-1{fill:none;stroke:#535355;stroke-miterlimit:10;stroke-width:8px;}</style></defs><title>homepage-icons</title><path class="cls-1" d="M76.84,95.68A28,28,0,0,1,63,92.63C38.66,80.29,19.79,62.19,7.67,37.71,1.25,24.76,3.6,13.79,12,7.18c4.81-3.77,9.05-4.11,13.43.45q4.23,4.41,8.72,8.56c4.19,3.87,5,8.22,1.16,12.49C30.25,34.34,32,39,36.56,43.68,41.79,49,46.73,54.62,52.11,59.78c6.25,6,12.69,11.78,21.56,3.5,2.54-2.37,5.79-1.53,8.36.69a54,54,0,0,1,5.82,5.69c3.74,4.39,10.91,7.62,7,15.14C91.23,91.88,85.28,96.16,76.84,95.68Z"/></svg>
